<?xml version="1.0" encoding="UTF-8" standalone="no"?>
<!-- Generated by Microsoft Visio 11.0, SVG Export, v1.0 MS D ff.svg Page-1 -->

<svg
   xmlns:v="http://schemas.microsoft.com/visio/2003/SVGExtensions/"
   xmlns:dc="http://purl.org/dc/elements/1.1/"
   xmlns:cc="http://creativecommons.org/ns#"
   xmlns:rdf="http://www.w3.org/1999/02/22-rdf-syntax-ns#"
   xmlns:svg="http://www.w3.org/2000/svg"
   xmlns="http://www.w3.org/2000/svg"
   xmlns:sodipodi="http://sodipodi.sourceforge.net/DTD/sodipodi-0.dtd"
   xmlns:inkscape="http://www.inkscape.org/namespaces/inkscape"
   width="8.26772in"
   height="11.6929in"
   viewBox="0 0 595.276 841.89"
   xml:space="preserve"
   color-interpolation-filters="sRGB"
   class="st7"
   id="svg3501"
   version="1.1"
   inkscape:version="0.48.3.1 r9886"
   sodipodi:docname="ms_flop.svg"><metadata
   id="metadata3977"><rdf:RDF><cc:Work
       rdf:about=""><dc:format>image/svg+xml</dc:format><dc:type
         rdf:resource="http://purl.org/dc/dcmitype/StillImage" /></cc:Work></rdf:RDF></metadata><defs
   id="defs3975">
		
		<v:pageProperties
   v:shadowOffsetY="-8.50394"
   v:shadowOffsetX="8.50394"
   v:drawingUnits="24"
   v:pageScale="0.0393701"
   v:drawingScale="0.0393701" />
		<v:layer
   v:index="0"
   v:name="Connector" />
		
		
		
		
		
		
		
		
		
		
		
		
		
		
		
		
		
		
		
		
		
		
		
		
		
		
		
		
		
		
		
		
		
		
		
		
	</defs><sodipodi:namedview
   pagecolor="#ffffff"
   bordercolor="#666666"
   borderopacity="1"
   objecttolerance="10"
   gridtolerance="10"
   guidetolerance="10"
   inkscape:pageopacity="0"
   inkscape:pageshadow="2"
   inkscape:window-width="1855"
   inkscape:window-height="1056"
   id="namedview3973"
   showgrid="false"
   inkscape:zoom="0.86377206"
   inkscape:cx="372.04742"
   inkscape:cy="526.18048"
   inkscape:window-x="65"
   inkscape:window-y="24"
   inkscape:window-maximized="1"
   inkscape:current-layer="svg3501" />
	<v:documentProperties
   v:langID="4105"
   v:metric="true"
   v:viewMarkup="false" />

	<style
   type="text/css"
   id="style3503">
	
		.st1 {fill:#ffffff;stroke:#000000;stroke-linecap:round;stroke-linejoin:round;stroke-width:1.2}
		.st2 {stroke:#000000;stroke-linecap:round;stroke-linejoin:round;stroke-width:1.2}
		.st3 {fill:#000000;stroke:#000000;stroke-linecap:round;stroke-linejoin:round;stroke-width:1.2}
		.st4 {fill:#ffffff;fill-opacity:0;stroke:#000000;stroke-linecap:round;stroke-linejoin:round;stroke-width:1.2}
		.st5 {fill:none;stroke:none;stroke-linecap:round;stroke-linejoin:round;stroke-width:0.72}
		.st6 {fill:#000000;font-family:Times New Roman;font-size:1.16666em}
		.st7 {fill:none;fill-rule:evenodd;font-size:12;overflow:visible;stroke-linecap:square;stroke-miterlimit:3}
	
	</style>

	<g
   v:groupContext="group"
   v:mID="39"
   transform="translate(121.04739,-505.02975)"
   id="group39-1">
			<title
   id="title3510">Sheet.39</title>
			<g
   v:groupContext="group"
   v:mID="36"
   transform="translate(2.12598,0)"
   id="group36-2">
				<title
   id="title3513">Sheet.36</title>
				<g
   transform="translate(0,-17.0079)"
   v:groupContext="shape"
   v:mID="13"
   id="shape13-3">
					<title
   id="title3516">Sheet.13</title>
					<path
   style="fill:#ffffff;stroke:#000000;stroke-width:1.20000005;stroke-linecap:round;stroke-linejoin:round"
   inkscape:connector-curvature="0"
   id="path3518"
   class="st1"
   d="m 17.01,841.89 0,-28.35 -17.01,0 0,17.01 0,11.34 17.01,0 z" />
				</g>
				<g
   transform="translate(0,-51.0236)"
   v:groupContext="shape"
   v:mID="23"
   id="shape23-5">
					<title
   id="title3521">Sheet.23</title>
					<path
   style="stroke:#000000;stroke-width:1.20000005;stroke-linecap:round;stroke-linejoin:round"
   inkscape:connector-curvature="0"
   id="path3523"
   class="st2"
   d="m 0,841.89 17.01,0" />
				</g>
				<g
   transform="translate(0,-11.3386)"
   v:groupContext="shape"
   v:mID="27"
   id="shape27-8">
					<title
   id="title3526">Sheet.27</title>
					<path
   style="stroke:#000000;stroke-width:1.20000005;stroke-linecap:round;stroke-linejoin:round"
   inkscape:connector-curvature="0"
   id="path3528"
   class="st2"
   d="m 0,841.89 17.01,0" />
				</g>
				<g
   transform="matrix(0,1,-1,0,850.394,773.858)"
   v:groupContext="shape"
   v:mID="30"
   id="shape30-11">
					<title
   id="title3531">Sheet.30</title>
					<path
   style="stroke:#000000;stroke-width:1.20000005;stroke-linecap:round;stroke-linejoin:round"
   inkscape:connector-curvature="0"
   id="path3533"
   class="st2"
   d="m 0,841.89 11.34,0" />
				</g>
				<g
   transform="matrix(0,1,-1,0,850.394,830.551)"
   v:groupContext="shape"
   v:mID="31"
   id="shape31-14">
					<title
   id="title3536">Sheet.31</title>
					<path
   style="stroke:#000000;stroke-width:1.20000005;stroke-linecap:round;stroke-linejoin:round"
   inkscape:connector-curvature="0"
   id="path3538"
   class="st2"
   d="m 0,841.89 11.34,0" />
				</g>
				<g
   transform="translate(5.66929,-51.0236)"
   v:groupContext="shape"
   v:mID="32"
   id="shape32-17">
					<title
   id="title3541">Sheet.32</title>
					<ellipse
   style="fill:#ffffff;stroke:#000000;stroke-width:1.20000005;stroke-linecap:round;stroke-linejoin:round"
   sodipodi:ry="2.83465"
   sodipodi:rx="2.83465"
   sodipodi:cy="839.05499"
   sodipodi:cx="2.83465"
   d="m 5.6693001,839.05499 c 0,1.56554 -1.2691161,2.83465 -2.8346501,2.83465 C 1.2691161,841.88964 0,840.62053 0,839.05499 c 0,-1.56553 1.2691161,-2.83465 2.83465,-2.83465 1.565534,0 2.8346501,1.26912 2.8346501,2.83465 z"
   id="ellipse3543"
   class="st1"
   ry="2.83465"
   rx="2.83465"
   cy="839.05499"
   cx="2.83465" />
				</g>
			</g>
			<g
   transform="translate(0,-29.0551)"
   v:groupContext="shape"
   v:mID="37"
   id="shape37-19">
				<title
   id="title3546">Sheet.37</title>
				<ellipse
   style="fill:#000000;stroke:#000000;stroke-width:1.20000005;stroke-linecap:round;stroke-linejoin:round"
   sodipodi:ry="2.1259799"
   sodipodi:rx="2.1259799"
   sodipodi:cy="839.76398"
   sodipodi:cx="2.1259799"
   d="m 4.2519598,839.76398 c 0,1.17414 -0.9518336,2.12598 -2.1259799,2.12598 C 0.95183362,841.88996 0,840.93812 0,839.76398 0,838.58983 0.95183362,837.638 2.1259799,837.638 c 1.1741463,0 2.1259799,0.95183 2.1259799,2.12598 z"
   id="ellipse3548"
   class="st3"
   ry="2.1259799"
   rx="2.1259799"
   cy="839.76398"
   cx="2.1259799" />
			</g>
			<g
   transform="translate(17.0079,-29.0551)"
   v:groupContext="shape"
   v:mID="38"
   id="shape38-21">
				<title
   id="title3551">Sheet.38</title>
				<ellipse
   style="fill:#000000;stroke:#000000;stroke-width:1.20000005;stroke-linecap:round;stroke-linejoin:round"
   sodipodi:ry="2.1259799"
   sodipodi:rx="2.1259799"
   sodipodi:cy="839.76398"
   sodipodi:cx="2.1259799"
   d="m 4.2519598,839.76398 c 0,1.17414 -0.9518336,2.12598 -2.1259799,2.12598 C 0.95183362,841.88996 0,840.93812 0,839.76398 0,838.58983 0.95183362,837.638 2.1259799,837.638 c 1.1741463,0 2.1259799,0.95183 2.1259799,2.12598 z"
   id="ellipse3553"
   class="st3"
   ry="2.1259799"
   rx="2.1259799"
   cy="839.76398"
   cx="2.1259799" />
			</g>
		</g><g
   v:groupContext="group"
   v:mID="40"
   transform="translate(310.96939,-505.02975)"
   id="group40-23">
			<title
   id="title3556">Sheet.40</title>
			<g
   v:groupContext="group"
   v:mID="41"
   transform="translate(2.12598,0)"
   id="group41-24">
				<title
   id="title3559">Sheet.41</title>
				<g
   transform="translate(0,-17.0079)"
   v:groupContext="shape"
   v:mID="42"
   id="shape42-25">
					<title
   id="title3562">Sheet.42</title>
					<path
   style="fill:#ffffff;stroke:#000000;stroke-width:1.20000005;stroke-linecap:round;stroke-linejoin:round"
   inkscape:connector-curvature="0"
   id="path3564"
   class="st1"
   d="m 17.01,841.89 0,-28.35 -17.01,0 0,17.01 0,11.34 17.01,0 z" />
				</g>
				<g
   transform="translate(0,-51.0236)"
   v:groupContext="shape"
   v:mID="43"
   id="shape43-27">
					<title
   id="title3567">Sheet.43</title>
					<path
   style="stroke:#000000;stroke-width:1.20000005;stroke-linecap:round;stroke-linejoin:round"
   inkscape:connector-curvature="0"
   id="path3569"
   class="st2"
   d="m 0,841.89 17.01,0" />
				</g>
				<g
   transform="translate(0,-11.3386)"
   v:groupContext="shape"
   v:mID="44"
   id="shape44-30">
					<title
   id="title3572">Sheet.44</title>
					<path
   style="stroke:#000000;stroke-width:1.20000005;stroke-linecap:round;stroke-linejoin:round"
   inkscape:connector-curvature="0"
   id="path3574"
   class="st2"
   d="m 0,841.89 17.01,0" />
				</g>
				<g
   transform="matrix(0,1,-1,0,850.394,773.858)"
   v:groupContext="shape"
   v:mID="45"
   id="shape45-33">
					<title
   id="title3577">Sheet.45</title>
					<path
   style="stroke:#000000;stroke-width:1.20000005;stroke-linecap:round;stroke-linejoin:round"
   inkscape:connector-curvature="0"
   id="path3579"
   class="st2"
   d="m 0,841.89 11.34,0" />
				</g>
				<g
   transform="matrix(0,1,-1,0,850.394,830.551)"
   v:groupContext="shape"
   v:mID="46"
   id="shape46-36">
					<title
   id="title3582">Sheet.46</title>
					<path
   style="stroke:#000000;stroke-width:1.20000005;stroke-linecap:round;stroke-linejoin:round"
   inkscape:connector-curvature="0"
   id="path3584"
   class="st2"
   d="m 0,841.89 11.34,0" />
				</g>
				<g
   transform="translate(5.66929,-51.0236)"
   v:groupContext="shape"
   v:mID="47"
   id="shape47-39">
					<title
   id="title3587">Sheet.47</title>
					<ellipse
   style="fill:#ffffff;stroke:#000000;stroke-width:1.20000005;stroke-linecap:round;stroke-linejoin:round"
   sodipodi:ry="2.83465"
   sodipodi:rx="2.83465"
   sodipodi:cy="839.05499"
   sodipodi:cx="2.83465"
   d="m 5.6693001,839.05499 c 0,1.56554 -1.2691161,2.83465 -2.8346501,2.83465 C 1.2691161,841.88964 0,840.62053 0,839.05499 c 0,-1.56553 1.2691161,-2.83465 2.83465,-2.83465 1.565534,0 2.8346501,1.26912 2.8346501,2.83465 z"
   id="ellipse3589"
   class="st1"
   ry="2.83465"
   rx="2.83465"
   cy="839.05499"
   cx="2.83465" />
				</g>
			</g>
			<g
   transform="translate(0,-29.0551)"
   v:groupContext="shape"
   v:mID="48"
   id="shape48-41">
				<title
   id="title3592">Sheet.48</title>
				<ellipse
   style="fill:#000000;stroke:#000000;stroke-width:1.20000005;stroke-linecap:round;stroke-linejoin:round"
   sodipodi:ry="2.1259799"
   sodipodi:rx="2.1259799"
   sodipodi:cy="839.76398"
   sodipodi:cx="2.1259799"
   d="m 4.2519598,839.76398 c 0,1.17414 -0.9518336,2.12598 -2.1259799,2.12598 C 0.95183362,841.88996 0,840.93812 0,839.76398 0,838.58983 0.95183362,837.638 2.1259799,837.638 c 1.1741463,0 2.1259799,0.95183 2.1259799,2.12598 z"
   id="ellipse3594"
   class="st3"
   ry="2.1259799"
   rx="2.1259799"
   cy="839.76398"
   cx="2.1259799" />
			</g>
			<g
   transform="translate(17.0079,-29.0551)"
   v:groupContext="shape"
   v:mID="49"
   id="shape49-43">
				<title
   id="title3597">Sheet.49</title>
				<ellipse
   style="fill:#000000;stroke:#000000;stroke-width:1.20000005;stroke-linecap:round;stroke-linejoin:round"
   sodipodi:ry="2.1259799"
   sodipodi:rx="2.1259799"
   sodipodi:cy="839.76398"
   sodipodi:cx="2.1259799"
   d="m 4.2519598,839.76398 c 0,1.17414 -0.9518336,2.12598 -2.1259799,2.12598 C 0.95183362,841.88996 0,840.93812 0,839.76398 0,838.58983 0.95183362,837.638 2.1259799,837.638 c 1.1741463,0 2.1259799,0.95183 2.1259799,2.12598 z"
   id="ellipse3599"
   class="st3"
   ry="2.1259799"
   rx="2.1259799"
   cy="839.76398"
   cx="2.1259799" />
			</g>
		</g><g
   v:groupContext="group"
   v:mID="50"
   transform="translate(359.15839,-412.90375)"
   id="group50-45">
			<title
   id="title3602">Sheet.50</title>
			<g
   v:groupContext="group"
   v:mID="51"
   transform="translate(2.12598,0)"
   id="group51-46">
				<title
   id="title3605">Sheet.51</title>
				<g
   transform="translate(0,-17.0079)"
   v:groupContext="shape"
   v:mID="52"
   id="shape52-47">
					<title
   id="title3608">Sheet.52</title>
					<path
   style="fill:#ffffff;stroke:#000000;stroke-width:1.20000005;stroke-linecap:round;stroke-linejoin:round"
   inkscape:connector-curvature="0"
   id="path3610"
   class="st1"
   d="m 17.01,841.89 0,-28.35 -17.01,0 0,17.01 0,11.34 17.01,0 z" />
				</g>
				<g
   transform="translate(0,-51.0236)"
   v:groupContext="shape"
   v:mID="53"
   id="shape53-49">
					<title
   id="title3613">Sheet.53</title>
					<path
   style="stroke:#000000;stroke-width:1.20000005;stroke-linecap:round;stroke-linejoin:round"
   inkscape:connector-curvature="0"
   id="path3615"
   class="st2"
   d="m 0,841.89 17.01,0" />
				</g>
				<g
   transform="translate(0,-11.3386)"
   v:groupContext="shape"
   v:mID="54"
   id="shape54-52">
					<title
   id="title3618">Sheet.54</title>
					<path
   style="stroke:#000000;stroke-width:1.20000005;stroke-linecap:round;stroke-linejoin:round"
   inkscape:connector-curvature="0"
   id="path3620"
   class="st2"
   d="m 0,841.89 17.01,0" />
				</g>
				<g
   transform="matrix(0,1,-1,0,850.394,773.858)"
   v:groupContext="shape"
   v:mID="55"
   id="shape55-55">
					<title
   id="title3623">Sheet.55</title>
					<path
   style="stroke:#000000;stroke-width:1.20000005;stroke-linecap:round;stroke-linejoin:round"
   inkscape:connector-curvature="0"
   id="path3625"
   class="st2"
   d="m 0,841.89 11.34,0" />
				</g>
				<g
   transform="matrix(0,1,-1,0,850.394,830.551)"
   v:groupContext="shape"
   v:mID="56"
   id="shape56-58">
					<title
   id="title3628">Sheet.56</title>
					<path
   style="stroke:#000000;stroke-width:1.20000005;stroke-linecap:round;stroke-linejoin:round"
   inkscape:connector-curvature="0"
   id="path3630"
   class="st2"
   d="m 0,841.89 11.34,0" />
				</g>
				<g
   transform="translate(5.66929,-51.0236)"
   v:groupContext="shape"
   v:mID="57"
   id="shape57-61">
					<title
   id="title3633">Sheet.57</title>
					<ellipse
   style="fill:#ffffff;stroke:#000000;stroke-width:1.20000005;stroke-linecap:round;stroke-linejoin:round"
   sodipodi:ry="2.83465"
   sodipodi:rx="2.83465"
   sodipodi:cy="839.05499"
   sodipodi:cx="2.83465"
   d="m 5.6693001,839.05499 c 0,1.56554 -1.2691161,2.83465 -2.8346501,2.83465 C 1.2691161,841.88964 0,840.62053 0,839.05499 c 0,-1.56553 1.2691161,-2.83465 2.83465,-2.83465 1.565534,0 2.8346501,1.26912 2.8346501,2.83465 z"
   id="ellipse3635"
   class="st1"
   ry="2.83465"
   rx="2.83465"
   cy="839.05499"
   cx="2.83465" />
				</g>
			</g>
			<g
   transform="translate(0,-29.0551)"
   v:groupContext="shape"
   v:mID="58"
   id="shape58-63">
				<title
   id="title3638">Sheet.58</title>
				<ellipse
   style="fill:#000000;stroke:#000000;stroke-width:1.20000005;stroke-linecap:round;stroke-linejoin:round"
   sodipodi:ry="2.1259799"
   sodipodi:rx="2.1259799"
   sodipodi:cy="839.76398"
   sodipodi:cx="2.1259799"
   d="m 4.2519598,839.76398 c 0,1.17414 -0.9518336,2.12598 -2.1259799,2.12598 C 0.95183362,841.88996 0,840.93812 0,839.76398 0,838.58983 0.95183362,837.638 2.1259799,837.638 c 1.1741463,0 2.1259799,0.95183 2.1259799,2.12598 z"
   id="ellipse3640"
   class="st3"
   ry="2.1259799"
   rx="2.1259799"
   cy="839.76398"
   cx="2.1259799" />
			</g>
			<g
   transform="translate(17.0079,-29.0551)"
   v:groupContext="shape"
   v:mID="59"
   id="shape59-65">
				<title
   id="title3643">Sheet.59</title>
				<ellipse
   style="fill:#000000;stroke:#000000;stroke-width:1.20000005;stroke-linecap:round;stroke-linejoin:round"
   sodipodi:ry="2.1259799"
   sodipodi:rx="2.1259799"
   sodipodi:cy="839.76398"
   sodipodi:cx="2.1259799"
   d="m 4.2519598,839.76398 c 0,1.17414 -0.9518336,2.12598 -2.1259799,2.12598 C 0.95183362,841.88996 0,840.93812 0,839.76398 0,838.58983 0.95183362,837.638 2.1259799,837.638 c 1.1741463,0 2.1259799,0.95183 2.1259799,2.12598 z"
   id="ellipse3645"
   class="st3"
   ry="2.1259799"
   rx="2.1259799"
   cy="839.76398"
   cx="2.1259799" />
			</g>
		</g><g
   v:groupContext="group"
   v:mID="35"
   transform="translate(410.18139,-523.45475)"
   id="group35-67">
			<title
   id="title3648">Sheet.35</title>
			<g
   v:groupContext="shape"
   v:mID="33"
   id="shape33-68">
				<title
   id="title3651">Sheet.33</title>
				<path
   style="fill:#ffffff;stroke:#000000;stroke-width:1.20000005;stroke-linecap:round;stroke-linejoin:round"
   inkscape:connector-curvature="0"
   id="path3653"
   class="st1"
   d="M 0,819.21 0,841.89 17.01,830.55 0,819.21 z" />
			</g>
			<g
   transform="translate(17.0079,-8.50394)"
   v:groupContext="shape"
   v:mID="34"
   id="shape34-70">
				<title
   id="title3656">Sheet.34</title>
				<ellipse
   style="fill:#ffffff;stroke:#000000;stroke-width:1.20000005;stroke-linecap:round;stroke-linejoin:round"
   sodipodi:ry="2.83465"
   sodipodi:rx="2.83465"
   sodipodi:cy="839.05499"
   sodipodi:cx="2.83465"
   d="m 5.6693001,839.05499 c 0,1.56554 -1.2691161,2.83465 -2.8346501,2.83465 C 1.2691161,841.88964 0,840.62053 0,839.05499 c 0,-1.56553 1.2691161,-2.83465 2.83465,-2.83465 1.565534,0 2.8346501,1.26912 2.8346501,2.83465 z"
   id="ellipse3658"
   class="st1"
   ry="2.83465"
   rx="2.83465"
   cy="839.05499"
   cx="2.83465" />
			</g>
		</g><g
   v:groupContext="group"
   v:mID="60"
   transform="matrix(-1,0,0,-1,432.85839,1228.3552)"
   id="group60-72">
			<title
   id="title3661">Sheet.60</title>
			<g
   v:groupContext="shape"
   v:mID="61"
   id="shape61-73">
				<title
   id="title3664">Sheet.61</title>
				<path
   style="fill:#ffffff;fill-opacity:0;stroke:#000000;stroke-width:1.20000005;stroke-linecap:round;stroke-linejoin:round"
   inkscape:connector-curvature="0"
   id="path3666"
   class="st4"
   d="M 0,819.21 0,841.89 17.01,830.55 0,819.21 z" />
			</g>
			<g
   transform="translate(17.0079,-8.50394)"
   v:groupContext="shape"
   v:mID="62"
   id="shape62-75">
				<title
   id="title3669">Sheet.62</title>
				<ellipse
   style="fill:#ffffff;fill-opacity:0;stroke:#000000;stroke-width:1.20000005;stroke-linecap:round;stroke-linejoin:round"
   sodipodi:ry="2.83465"
   sodipodi:rx="2.83465"
   sodipodi:cy="839.05499"
   sodipodi:cx="2.83465"
   d="m 5.6693001,839.05499 c 0,1.56554 -1.2691161,2.83465 -2.8346501,2.83465 C 1.2691161,841.88964 0,840.62053 0,839.05499 c 0,-1.56553 1.2691161,-2.83465 2.83465,-2.83465 1.565534,0 2.8346501,1.26912 2.8346501,2.83465 z"
   id="ellipse3671"
   class="st4"
   ry="2.83465"
   rx="2.83465"
   cy="839.05499"
   cx="2.83465" />
			</g>
		</g><g
   v:groupContext="group"
   v:mID="64"
   transform="translate(223.09539,-432.74675)"
   id="group64-77">
			<title
   id="title3674">Sheet.64</title>
			<g
   v:groupContext="group"
   v:mID="65"
   transform="translate(0,-90.7087)"
   id="group65-78">
				<title
   id="title3677">Sheet.65</title>
				<g
   v:groupContext="shape"
   v:mID="66"
   id="shape66-79">
					<title
   id="title3680">Sheet.66</title>
					<path
   style="fill:#ffffff;stroke:#000000;stroke-width:1.20000005;stroke-linecap:round;stroke-linejoin:round"
   inkscape:connector-curvature="0"
   id="path3682"
   class="st1"
   d="M 0,819.21 0,841.89 17.01,830.55 0,819.21 z" />
				</g>
				<g
   transform="translate(17.0079,-8.50394)"
   v:groupContext="shape"
   v:mID="67"
   id="shape67-81">
					<title
   id="title3685">Sheet.67</title>
					<ellipse
   style="fill:#ffffff;stroke:#000000;stroke-width:1.20000005;stroke-linecap:round;stroke-linejoin:round"
   sodipodi:ry="2.83465"
   sodipodi:rx="2.83465"
   sodipodi:cy="839.05499"
   sodipodi:cx="2.83465"
   d="m 5.6693001,839.05499 c 0,1.56554 -1.2691161,2.83465 -2.8346501,2.83465 C 1.2691161,841.88964 0,840.62053 0,839.05499 c 0,-1.56553 1.2691161,-2.83465 2.83465,-2.83465 1.565534,0 2.8346501,1.26912 2.8346501,2.83465 z"
   id="ellipse3687"
   class="st1"
   ry="2.83465"
   rx="2.83465"
   cy="839.05499"
   cx="2.83465" />
				</g>
			</g>
			<g
   v:groupContext="group"
   v:mID="68"
   transform="matrix(-1,0,0,-1,22.6772,1661.1)"
   id="group68-83">
				<title
   id="title3690">Sheet.68</title>
				<g
   v:groupContext="shape"
   v:mID="69"
   id="shape69-84">
					<title
   id="title3693">Sheet.69</title>
					<path
   style="fill:#ffffff;stroke:#000000;stroke-width:1.20000005;stroke-linecap:round;stroke-linejoin:round"
   inkscape:connector-curvature="0"
   id="path3695"
   class="st1"
   d="M 0,819.21 0,841.89 17.01,830.55 0,819.21 z" />
				</g>
				<g
   transform="translate(17.0079,-8.50394)"
   v:groupContext="shape"
   v:mID="70"
   id="shape70-86">
					<title
   id="title3698">Sheet.70</title>
					<ellipse
   style="fill:#ffffff;stroke:#000000;stroke-width:1.20000005;stroke-linecap:round;stroke-linejoin:round"
   sodipodi:ry="2.83465"
   sodipodi:rx="2.83465"
   sodipodi:cy="839.05499"
   sodipodi:cx="2.83465"
   d="m 5.6693001,839.05499 c 0,1.56554 -1.2691161,2.83465 -2.8346501,2.83465 C 1.2691161,841.88964 0,840.62053 0,839.05499 c 0,-1.56553 1.2691161,-2.83465 2.83465,-2.83465 1.565534,0 2.8346501,1.26912 2.8346501,2.83465 z"
   id="ellipse3700"
   class="st1"
   ry="2.83465"
   rx="2.83465"
   cy="839.05499"
   cx="2.83465" />
				</g>
			</g>
		</g><g
   v:groupContext="group"
   v:mID="63"
   transform="translate(410.18139,-585.81775)"
   id="group63-88">
			<title
   id="title3703">Sheet.63</title>
			<g
   v:groupContext="shape"
   v:mID="71"
   id="shape71-89">
				<title
   id="title3706">Sheet.71</title>
				<path
   style="fill:#ffffff;stroke:#000000;stroke-width:1.20000005;stroke-linecap:round;stroke-linejoin:round"
   inkscape:connector-curvature="0"
   id="path3708"
   class="st1"
   d="M 0,819.21 0,841.89 17.01,830.55 0,819.21 z" />
			</g>
			<g
   transform="translate(17.0079,-8.50394)"
   v:groupContext="shape"
   v:mID="72"
   id="shape72-91">
				<title
   id="title3711">Sheet.72</title>
				<ellipse
   style="fill:#ffffff;stroke:#000000;stroke-width:1.20000005;stroke-linecap:round;stroke-linejoin:round"
   sodipodi:ry="2.83465"
   sodipodi:rx="2.83465"
   sodipodi:cy="839.05499"
   sodipodi:cx="2.83465"
   d="m 5.6693001,839.05499 c 0,1.56554 -1.2691161,2.83465 -2.8346501,2.83465 C 1.2691161,841.88964 0,840.62053 0,839.05499 c 0,-1.56553 1.2691161,-2.83465 2.83465,-2.83465 1.565534,0 2.8346501,1.26912 2.8346501,2.83465 z"
   id="ellipse3713"
   class="st1"
   ry="2.83465"
   rx="2.83465"
   cy="839.05499"
   cx="2.83465" />
			</g>
		</g><g
   v:groupContext="group"
   v:mID="73"
   transform="translate(161.44139,-412.90375)"
   id="group73-93">
			<title
   id="title3716">Sheet.73</title>
			<g
   v:groupContext="group"
   v:mID="74"
   transform="translate(2.12598,0)"
   id="group74-94">
				<title
   id="title3719">Sheet.74</title>
				<g
   transform="translate(0,-17.0079)"
   v:groupContext="shape"
   v:mID="75"
   id="shape75-95">
					<title
   id="title3722">Sheet.75</title>
					<path
   style="fill:#ffffff;stroke:#000000;stroke-width:1.20000005;stroke-linecap:round;stroke-linejoin:round"
   inkscape:connector-curvature="0"
   id="path3724"
   class="st1"
   d="m 17.01,841.89 0,-28.35 -17.01,0 0,17.01 0,11.34 17.01,0 z" />
				</g>
				<g
   transform="translate(0,-51.0236)"
   v:groupContext="shape"
   v:mID="76"
   id="shape76-97">
					<title
   id="title3727">Sheet.76</title>
					<path
   style="stroke:#000000;stroke-width:1.20000005;stroke-linecap:round;stroke-linejoin:round"
   inkscape:connector-curvature="0"
   id="path3729"
   class="st2"
   d="m 0,841.89 17.01,0" />
				</g>
				<g
   transform="translate(0,-11.3386)"
   v:groupContext="shape"
   v:mID="77"
   id="shape77-100">
					<title
   id="title3732">Sheet.77</title>
					<path
   style="stroke:#000000;stroke-width:1.20000005;stroke-linecap:round;stroke-linejoin:round"
   inkscape:connector-curvature="0"
   id="path3734"
   class="st2"
   d="m 0,841.89 17.01,0" />
				</g>
				<g
   transform="matrix(0,1,-1,0,850.394,773.858)"
   v:groupContext="shape"
   v:mID="78"
   id="shape78-103">
					<title
   id="title3737">Sheet.78</title>
					<path
   style="stroke:#000000;stroke-width:1.20000005;stroke-linecap:round;stroke-linejoin:round"
   inkscape:connector-curvature="0"
   id="path3739"
   class="st2"
   d="m 0,841.89 11.34,0" />
				</g>
				<g
   transform="matrix(0,1,-1,0,850.394,830.551)"
   v:groupContext="shape"
   v:mID="79"
   id="shape79-106">
					<title
   id="title3742">Sheet.79</title>
					<path
   style="stroke:#000000;stroke-width:1.20000005;stroke-linecap:round;stroke-linejoin:round"
   inkscape:connector-curvature="0"
   id="path3744"
   class="st2"
   d="m 0,841.89 11.34,0" />
				</g>
				<g
   transform="translate(5.66929,-51.0236)"
   v:groupContext="shape"
   v:mID="80"
   id="shape80-109">
					<title
   id="title3747">Sheet.80</title>
					<ellipse
   style="fill:#ffffff;stroke:#000000;stroke-width:1.20000005;stroke-linecap:round;stroke-linejoin:round"
   sodipodi:ry="2.83465"
   sodipodi:rx="2.83465"
   sodipodi:cy="839.05499"
   sodipodi:cx="2.83465"
   d="m 5.6693001,839.05499 c 0,1.56554 -1.2691161,2.83465 -2.8346501,2.83465 C 1.2691161,841.88964 0,840.62053 0,839.05499 c 0,-1.56553 1.2691161,-2.83465 2.83465,-2.83465 1.565534,0 2.8346501,1.26912 2.8346501,2.83465 z"
   id="ellipse3749"
   class="st1"
   ry="2.83465"
   rx="2.83465"
   cy="839.05499"
   cx="2.83465" />
				</g>
			</g>
			<g
   transform="translate(0,-29.0551)"
   v:groupContext="shape"
   v:mID="81"
   id="shape81-111">
				<title
   id="title3752">Sheet.81</title>
				<ellipse
   style="fill:#000000;stroke:#000000;stroke-width:1.20000005;stroke-linecap:round;stroke-linejoin:round"
   sodipodi:ry="2.1259799"
   sodipodi:rx="2.1259799"
   sodipodi:cy="839.76398"
   sodipodi:cx="2.1259799"
   d="m 4.2519598,839.76398 c 0,1.17414 -0.9518336,2.12598 -2.1259799,2.12598 C 0.95183362,841.88996 0,840.93812 0,839.76398 0,838.58983 0.95183362,837.638 2.1259799,837.638 c 1.1741463,0 2.1259799,0.95183 2.1259799,2.12598 z"
   id="ellipse3754"
   class="st3"
   ry="2.1259799"
   rx="2.1259799"
   cy="839.76398"
   cx="2.1259799" />
			</g>
			<g
   transform="translate(17.0079,-29.0551)"
   v:groupContext="shape"
   v:mID="82"
   id="shape82-113">
				<title
   id="title3757">Sheet.82</title>
				<ellipse
   style="fill:#000000;stroke:#000000;stroke-width:1.20000005;stroke-linecap:round;stroke-linejoin:round"
   sodipodi:ry="2.1259799"
   sodipodi:rx="2.1259799"
   sodipodi:cy="839.76398"
   sodipodi:cx="2.1259799"
   d="m 4.2519598,839.76398 c 0,1.17414 -0.9518336,2.12598 -2.1259799,2.12598 C 0.95183362,841.88996 0,840.93812 0,839.76398 0,838.58983 0.95183362,837.638 2.1259799,837.638 c 1.1741463,0 2.1259799,0.95183 2.1259799,2.12598 z"
   id="ellipse3759"
   class="st3"
   ry="2.1259799"
   rx="2.1259799"
   cy="839.76398"
   cx="2.1259799" />
			</g>
		</g><g
   transform="matrix(-1,0,0,-1,223.09539,1148.9852)"
   v:groupContext="shape"
   v:mID="83"
   id="shape83-115">
			<title
   id="title3762">Sheet.83</title>
			<path
   style="stroke:#000000;stroke-width:1.20000005;stroke-linecap:round;stroke-linejoin:round"
   inkscape:connector-curvature="0"
   id="path3764"
   class="st2"
   d="m 0,841.89 81.33,0" />
		</g><g
   transform="translate(245.77239,-534.79375)"
   v:groupContext="shape"
   v:mID="84"
   id="shape84-118">
			<title
   id="title3767">Sheet.84</title>
			<path
   style="stroke:#000000;stroke-width:1.20000005;stroke-linecap:round;stroke-linejoin:round"
   inkscape:connector-curvature="0"
   id="path3769"
   class="st2"
   d="m 0,841.89 68.03,0" />
		</g><g
   transform="matrix(-1,0,0,-1,410.18139,1148.9852)"
   v:groupContext="shape"
   v:mID="85"
   id="shape85-121">
			<title
   id="title3772">Sheet.85</title>
			<path
   style="stroke:#000000;stroke-width:1.20000005;stroke-linecap:round;stroke-linejoin:round"
   inkscape:connector-curvature="0"
   id="path3774"
   class="st2"
   d="m 0,841.89 78.49,0" />
		</g><g
   transform="translate(432.83739,-444.08475)"
   v:groupContext="shape"
   v:mID="86"
   id="shape86-124">
			<title
   id="title3777">Sheet.86</title>
			<path
   style="stroke:#000000;stroke-width:1.20000005;stroke-linecap:round;stroke-linejoin:round"
   inkscape:connector-curvature="0"
   id="path3779"
   class="st2"
   d="m 0,751.53 51.05,0 0,90.36 -51.03,0" />
		</g><g
   transform="matrix(-1,0,0,-1,410.29039,1240.4752)"
   v:groupContext="shape"
   v:mID="87"
   id="shape87-127">
			<title
   id="title3782">Sheet.87</title>
			<path
   style="stroke:#000000;stroke-width:1.20000005;stroke-linecap:round;stroke-linejoin:round"
   inkscape:connector-curvature="0"
   id="path3784"
   class="st2"
   d="m 0,841.89 30.02,0" />
		</g><g
   transform="matrix(-1,0,0,-1,223.12339,1240.0952)"
   v:groupContext="shape"
   v:mID="89"
   id="shape89-130">
			<title
   id="title3787">Sheet.89</title>
			<path
   style="stroke:#000000;stroke-width:1.20000005;stroke-linecap:round;stroke-linejoin:round"
   inkscape:connector-curvature="0"
   id="path3789"
   class="st2"
   d="m 0,841.89 40.46,0" />
		</g><g
   transform="matrix(0,1,-1,0,996.24439,307.09625)"
   v:groupContext="shape"
   v:mID="90"
   id="shape90-133">
			<title
   id="title3792">Sheet.90</title>
			<path
   style="stroke:#000000;stroke-width:1.20000005;stroke-linecap:round;stroke-linejoin:round"
   inkscape:connector-curvature="0"
   id="path3794"
   class="st2"
   d="m 0,841.89 90.71,0" />
		</g><g
   transform="translate(154.35439,-444.08475)"
   v:groupContext="shape"
   v:mID="91"
   id="shape91-136">
			<title
   id="title3797">Sheet.91</title>
			<path
   style="stroke:#000000;stroke-width:1.20000005;stroke-linecap:round;stroke-linejoin:round"
   inkscape:connector-curvature="0"
   id="path3799"
   class="st2"
   d="m 0,841.89 10.63,0" />
		</g><g
   transform="translate(245.77239,-444.08475)"
   v:groupContext="shape"
   v:mID="88"
   id="shape88-139">
			<title
   id="title3802">Sheet.88</title>
			<path
   style="stroke:#000000;stroke-width:1.20000005;stroke-linecap:round;stroke-linejoin:round"
   inkscape:connector-curvature="0"
   id="path3804"
   class="st2"
   d="m 22.68,751.18 0,90.71 -22.68,0" />
		</g><g
   transform="translate(342.15039,-444.08475)"
   v:groupContext="shape"
   v:mID="92"
   id="shape92-142">
			<title
   id="title3807">Sheet.92</title>
			<path
   style="stroke:#000000;stroke-width:1.20000005;stroke-linecap:round;stroke-linejoin:round"
   inkscape:connector-curvature="0"
   id="path3809"
   class="st2"
   d="m 0,751.18 0,90.71 21.26,0" />
		</g><g
   transform="translate(342.15039,-534.79375)"
   v:groupContext="shape"
   v:mID="93"
   id="shape93-145">
			<title
   id="title3812">Sheet.93</title>
			<path
   style="stroke:#000000;stroke-width:1.20000005;stroke-linecap:round;stroke-linejoin:round"
   inkscape:connector-curvature="0"
   id="path3814"
   class="st2"
   d="m 0,841.89 0,-62.36 68.03,0" />
		</g><g
   transform="translate(432.81339,-597.66275)"
   v:groupContext="shape"
   v:mID="94"
   id="shape94-148">
			<title
   id="title3817">Sheet.94</title>
			<path
   style="stroke:#000000;stroke-width:1.20000005;stroke-linecap:round;stroke-linejoin:round"
   inkscape:connector-curvature="0"
   id="path3819"
   class="st2"
   d="m 0,841.89 17.05,0" />
		</g><g
   transform="translate(98.370389,-536.21075)"
   v:groupContext="shape"
   v:mID="95"
   id="shape95-151">
			<title
   id="title3822">Sheet.95</title>
			<path
   style="stroke:#000000;stroke-width:1.20000005;stroke-linecap:round;stroke-linejoin:round"
   inkscape:connector-curvature="0"
   id="path3824"
   class="st2"
   d="m 0,841.89 22.68,0" />
		</g><g
   transform="translate(340.02439,-532.66775)"
   v:groupContext="shape"
   v:mID="101"
   id="shape101-154">
			<title
   id="title3827">Sheet.101</title>
			<ellipse
   style="fill:#000000;stroke:#000000;stroke-width:1.20000005;stroke-linecap:round;stroke-linejoin:round"
   sodipodi:ry="2.1259799"
   sodipodi:rx="2.1259799"
   sodipodi:cy="839.76398"
   sodipodi:cx="2.1259799"
   d="m 4.2519598,839.76398 c 0,1.17414 -0.9518336,2.12598 -2.1259799,2.12598 C 0.95183362,841.88996 0,840.93812 0,839.76398 0,838.58983 0.95183362,837.638 2.1259799,837.638 c 1.1741463,0 2.1259799,0.95183 2.1259799,2.12598 z"
   id="ellipse3829"
   class="st3"
   ry="2.1259799"
   rx="2.1259799"
   cy="839.76398"
   cx="2.1259799" />
		</g><g
   transform="translate(265.61439,-532.66775)"
   v:groupContext="shape"
   v:mID="102"
   id="shape102-156">
			<title
   id="title3832">Sheet.102</title>
			<ellipse
   style="fill:#000000;stroke:#000000;stroke-width:1.20000005;stroke-linecap:round;stroke-linejoin:round"
   sodipodi:ry="2.1259799"
   sodipodi:rx="2.1259799"
   sodipodi:cy="839.76398"
   sodipodi:cx="2.1259799"
   d="m 4.2519598,839.76398 c 0,1.17414 -0.9518336,2.12598 -2.1259799,2.12598 C 0.95183362,841.88996 0,840.93812 0,839.76398 0,838.58983 0.95183362,837.638 2.1259799,837.638 c 1.1741463,0 2.1259799,0.95183 2.1259799,2.12598 z"
   id="ellipse3834"
   class="st3"
   ry="2.1259799"
   rx="2.1259799"
   cy="839.76398"
   cx="2.1259799" />
		</g><g
   transform="translate(152.22839,-531.95875)"
   v:groupContext="shape"
   v:mID="103"
   id="shape103-158">
			<title
   id="title3837">Sheet.103</title>
			<ellipse
   style="fill:#000000;stroke:#000000;stroke-width:1.20000005;stroke-linecap:round;stroke-linejoin:round"
   sodipodi:ry="2.1259799"
   sodipodi:rx="2.1259799"
   sodipodi:cy="839.76398"
   sodipodi:cx="2.1259799"
   d="m 4.2519598,839.76398 c 0,1.17414 -0.9518336,2.12598 -2.1259799,2.12598 C 0.95183362,841.88996 0,840.93812 0,839.76398 0,838.58983 0.95183362,837.638 2.1259799,837.638 c 1.1741463,0 2.1259799,0.95183 2.1259799,2.12598 z"
   id="ellipse3839"
   class="st3"
   ry="2.1259799"
   rx="2.1259799"
   cy="839.76398"
   cx="2.1259799" />
		</g><g
   transform="translate(58.685389,-523.45475)"
   v:groupContext="shape"
   v:mID="108"
   id="shape108-160">
			<title
   id="title3842">Sheet.108</title>
			<desc
   id="desc3844">Data</desc>
			<v:textBlock
   v:tabSpace="42.5197"
   v:margins="rect(4,4,4,4)" />
			<v:textRect
   height="28.3465"
   width="45.36"
   cy="827.717"
   cx="22.6772" />
			<rect
   style="fill:none;stroke:none"
   id="rect3846"
   class="st5"
   height="28.3465"
   width="45.354301"
   y="813.54303"
   x="0" />
			<text
   style="fill:#000000;font-family:Times New Roman"
   id="text3848"
   v:langID="1033"
   class="st6"
   y="831.91998"
   x="9.46"><v:paragraph
   v:horizAlign="1" /><v:tabList />Data</text>
		</g><g
   transform="translate(438.49998,-582.00043)"
   v:groupContext="shape"
   v:mID="110"
   id="shape110-163">
			<title
   id="title3851">Sheet.110</title>
			<desc
   id="desc3853">Q</desc>
			<v:textBlock
   v:tabSpace="42.5197"
   v:margins="rect(4,4,4,4)" />
			<v:textRect
   height="28.3465"
   width="45.36"
   cy="827.717"
   cx="22.6772" />
			<rect
   style="fill:none;stroke:none"
   id="rect3855"
   class="st5"
   height="28.3465"
   width="45.354301"
   y="813.54303"
   x="0" />
			<text
   style="fill:#000000;font-family:Times New Roman"
   id="text3857"
   v:langID="1033"
   class="st6"
   y="831.91998"
   x="17.620001"><v:paragraph
   v:horizAlign="1" /><v:tabList />Q</text>
		</g><g
   transform="translate(109.70939,-568.80975)"
   v:groupContext="shape"
   v:mID="111"
   id="shape111-166">
			<title
   id="title3860">Sheet.111</title>
			<desc
   id="desc3862">Clk</desc>
			<v:textBlock
   v:tabSpace="42.5197"
   v:margins="rect(4,4,4,4)" />
			<v:textRect
   height="28.3465"
   width="45.36"
   cy="827.717"
   cx="22.6772" />
			<rect
   style="fill:none;stroke:none"
   id="rect3864"
   class="st5"
   height="28.3465"
   width="45.354301"
   y="813.54303"
   x="0" />
			<text
   style="fill:#000000;font-family:Times New Roman"
   id="text3866"
   v:langID="1033"
   class="st6"
   y="831.91998"
   x="12.56"><v:paragraph
   v:horizAlign="1" /><v:tabList />Clk</text>
		</g><g
   transform="translate(149.39439,-387.39175)"
   v:groupContext="shape"
   v:mID="112"
   id="shape112-169">
			<title
   id="title3869">Sheet.112</title>
			<desc
   id="desc3871">Clk</desc>
			<v:textBlock
   v:tabSpace="42.5197"
   v:margins="rect(4,4,4,4)" />
			<v:textRect
   height="28.3465"
   width="45.36"
   cy="827.717"
   cx="22.6772" />
			<rect
   style="fill:none;stroke:none"
   id="rect3873"
   class="st5"
   height="28.3465"
   width="45.354301"
   y="813.54303"
   x="0" />
			<text
   style="fill:#000000;font-family:Times New Roman"
   id="text3875"
   v:langID="1033"
   class="st6"
   y="831.91998"
   x="12.56"><v:paragraph
   v:horizAlign="1" /><v:tabList />Clk</text>
		</g><g
   transform="translate(296.79539,-480.93575)"
   v:groupContext="shape"
   v:mID="113"
   id="shape113-172">
			<title
   id="title3878">Sheet.113</title>
			<desc
   id="desc3880">Clk</desc>
			<v:textBlock
   v:tabSpace="42.5197"
   v:margins="rect(4,4,4,4)" />
			<v:textRect
   height="28.3465"
   width="45.36"
   cy="827.717"
   cx="22.6772" />
			<rect
   style="fill:none;stroke:none"
   id="rect3882"
   class="st5"
   height="28.3465"
   width="45.354301"
   y="813.54303"
   x="0" />
			<text
   style="fill:#000000;font-family:Times New Roman"
   id="text3884"
   v:langID="1033"
   class="st6"
   y="831.91998"
   x="12.56"><v:paragraph
   v:horizAlign="1" /><v:tabList />Clk</text>
		</g><g
   transform="translate(347.81939,-478.10075)"
   v:groupContext="shape"
   v:mID="114"
   id="shape114-175">
			<title
   id="title3887">Sheet.114</title>
			<desc
   id="desc3889">Clk</desc>
			<v:textBlock
   v:tabSpace="42.5197"
   v:margins="rect(4,4,4,4)" />
			<v:textRect
   height="28.3465"
   width="45.36"
   cy="827.717"
   cx="22.6772" />
			<rect
   style="fill:none;stroke:none"
   id="rect3891"
   class="st5"
   height="28.3465"
   width="45.354301"
   y="813.54303"
   x="0" />
			<text
   style="fill:#000000;font-family:Times New Roman"
   id="text3893"
   v:langID="1033"
   class="st6"
   y="831.91998"
   x="12.56"><v:paragraph
   v:horizAlign="1" /><v:tabList />Clk</text>
		</g><g
   v:groupContext="group"
   v:mID="117"
   transform="translate(296.79539,-565.97475)"
   id="group117-178">
			<title
   id="title3896">Sheet.117</title>
			<g
   transform="translate(14.1732,-24.0945)"
   v:groupContext="shape"
   v:mID="115"
   id="shape115-179">
				<title
   id="title3899">Sheet.115</title>
				<path
   style="stroke:#000000;stroke-width:1.20000005;stroke-linecap:round;stroke-linejoin:round"
   inkscape:connector-curvature="0"
   id="path3901"
   class="st2"
   d="m 0,841.89 17.01,0" />
			</g>
			<g
   v:groupContext="shape"
   v:mID="116"
   id="shape116-182">
				<title
   id="title3904">Sheet.116</title>
				<desc
   id="desc3906">Clk</desc>
				<v:textBlock
   v:tabSpace="42.5197"
   v:margins="rect(4,4,4,4)" />
				<v:textRect
   height="28.3465"
   width="45.36"
   cy="827.717"
   cx="22.6772" />
				<rect
   style="fill:none;stroke:none"
   id="rect3908"
   class="st5"
   height="28.3465"
   width="45.354301"
   y="813.54303"
   x="0" />
				<text
   style="fill:#000000;font-family:Times New Roman"
   id="text3910"
   v:langID="1033"
   class="st6"
   y="831.91998"
   x="12.56"><v:paragraph
   v:horizAlign="1" /><v:tabList />Clk</text>
			</g>
		</g><g
   v:groupContext="group"
   v:mID="118"
   transform="translate(149.39439,-475.26575)"
   id="group118-185">
			<title
   id="title3913">Sheet.118</title>
			<g
   transform="translate(14.1732,-24.0945)"
   v:groupContext="shape"
   v:mID="119"
   id="shape119-186">
				<title
   id="title3916">Sheet.119</title>
				<path
   style="stroke:#000000;stroke-width:1.20000005;stroke-linecap:round;stroke-linejoin:round"
   inkscape:connector-curvature="0"
   id="path3918"
   class="st2"
   d="m 0,841.89 17.01,0" />
			</g>
			<g
   v:groupContext="shape"
   v:mID="120"
   id="shape120-189">
				<title
   id="title3921">Sheet.120</title>
				<desc
   id="desc3923">Clk</desc>
				<v:textBlock
   v:tabSpace="42.5197"
   v:margins="rect(4,4,4,4)" />
				<v:textRect
   height="28.3465"
   width="45.36"
   cy="827.717"
   cx="22.6772" />
				<rect
   style="fill:none;stroke:none"
   id="rect3925"
   class="st5"
   height="28.3465"
   width="45.354301"
   y="813.54303"
   x="0" />
				<text
   style="fill:#000000;font-family:Times New Roman"
   id="text3927"
   v:langID="1033"
   class="st6"
   y="831.91998"
   x="12.56"><v:paragraph
   v:horizAlign="1" /><v:tabList />Clk</text>
			</g>
		</g><g
   v:groupContext="group"
   v:mID="121"
   transform="translate(347.81939,-384.55775)"
   id="group121-192">
			<title
   id="title3930">Sheet.121</title>
			<g
   transform="translate(14.1732,-24.0945)"
   v:groupContext="shape"
   v:mID="122"
   id="shape122-193">
				<title
   id="title3933">Sheet.122</title>
				<path
   style="stroke:#000000;stroke-width:1.20000005;stroke-linecap:round;stroke-linejoin:round"
   inkscape:connector-curvature="0"
   id="path3935"
   class="st2"
   d="m 0,841.89 17.01,0" />
			</g>
			<g
   v:groupContext="shape"
   v:mID="123"
   id="shape123-196">
				<title
   id="title3938">Sheet.123</title>
				<desc
   id="desc3940">Clk</desc>
				<v:textBlock
   v:tabSpace="42.5197"
   v:margins="rect(4,4,4,4)" />
				<v:textRect
   height="28.3465"
   width="45.36"
   cy="827.717"
   cx="22.6772" />
				<rect
   style="fill:none;stroke:none"
   id="rect3942"
   class="st5"
   height="28.3465"
   width="45.354301"
   y="813.54303"
   x="0" />
				<text
   style="fill:#000000;font-family:Times New Roman"
   id="text3944"
   v:langID="1033"
   class="st6"
   y="831.91998"
   x="12.56"><v:paragraph
   v:horizAlign="1" /><v:tabList />Clk</text>
			</g>
		</g><g
   v:groupContext="group"
   v:mID="124"
   transform="translate(109.70939,-475.26575)"
   id="group124-199">
			<title
   id="title3947">Sheet.124</title>
			<g
   transform="translate(14.1732,-24.0945)"
   v:groupContext="shape"
   v:mID="125"
   id="shape125-200">
				<title
   id="title3950">Sheet.125</title>
				<path
   style="stroke:#000000;stroke-width:1.20000005;stroke-linecap:round;stroke-linejoin:round"
   inkscape:connector-curvature="0"
   id="path3952"
   class="st2"
   d="m 0,841.89 17.01,0" />
			</g>
			<g
   v:groupContext="shape"
   v:mID="126"
   id="shape126-203">
				<title
   id="title3955">Sheet.126</title>
				<desc
   id="desc3957">Clk</desc>
				<v:textBlock
   v:tabSpace="42.5197"
   v:margins="rect(4,4,4,4)" />
				<v:textRect
   height="28.3465"
   width="45.36"
   cy="827.717"
   cx="22.6772" />
				<rect
   style="fill:none;stroke:none"
   id="rect3959"
   class="st5"
   height="28.3465"
   width="45.354301"
   y="813.54303"
   x="0" />
				<text
   style="fill:#000000;font-family:Times New Roman"
   id="text3961"
   v:langID="1033"
   class="st6"
   y="831.91998"
   x="12.56"><v:paragraph
   v:horizAlign="1" /><v:tabList />Clk</text>
			</g>
		</g>
</svg>